<svg version="1.1" id="Layer_1" xmlns="http://www.w3.org/2000/svg" xmlns:xlink="http://www.w3.org/1999/xlink" x="0px" y="0px"
	 width="100%" viewBox="0 0 1024 1024" enable-background="new 0 0 1024 1024" xml:space="preserve">
<path fill="#000000" opacity="1.000000" stroke="none" 
	d="
M723.388733,680.000122 
	C723.376343,703.832642 723.389404,727.165283 723.343994,750.497742 
	C723.266174,790.457886 695.452820,822.603210 655.864258,826.823242 
	C640.369995,828.474854 624.563354,827.186768 608.899170,827.263550 
	C606.374268,827.275940 605.285034,825.935913 605.152466,823.592651 
	C605.077148,822.262756 605.038635,820.928955 605.039185,819.596924 
	C605.056213,779.791077 604.757568,739.981323 605.229370,700.180847 
	C605.493896,677.866760 604.167236,655.541809 605.748474,633.235168 
	C606.070374,628.694336 606.644836,624.337402 608.977966,619.840454 
	C612.234497,622.318359 615.734924,623.177185 619.639343,623.084839 
	C626.735107,622.916931 631.224121,620.160461 631.406616,613.069092 
	C631.634705,604.207275 634.424377,596.643555 638.542053,589.082336 
	C640.906982,584.739502 642.139343,579.768799 642.978088,574.806396 
	C643.525330,571.569092 644.860168,569.681519 648.349365,571.893433 
	C650.293091,573.125671 652.030640,572.571472 654.006165,571.774353 
	C658.601990,569.919739 662.519653,567.193909 665.656494,563.406555 
	C675.550354,551.461060 685.225891,539.358704 691.981384,525.242859 
	C692.847717,523.432556 693.776978,521.653748 693.805786,519.589172 
	C693.900208,512.826172 688.578369,508.608398 682.135498,510.863678 
	C675.047607,513.344604 668.719238,517.474182 662.295471,521.317810 
	C660.163391,522.593506 658.274963,524.276001 656.144897,525.555664 
	C651.412292,528.398743 647.769287,532.083252 645.998779,537.449585 
	C645.493958,538.979675 645.083313,540.722595 642.838135,541.301208 
	C642.472473,541.024841 641.688965,540.747314 641.515381,540.254883 
	C638.414795,531.458801 632.900574,523.710632 630.604370,514.544189 
	C628.403259,505.757446 623.303833,499.617798 613.754211,498.498993 
	C609.750977,498.029968 608.152893,495.727264 607.228027,492.128937 
	C605.762756,486.428650 605.128906,480.612579 605.084351,474.812134 
	C604.902588,451.147797 604.954895,427.481201 605.016235,403.815704 
	C605.035767,396.289581 605.658325,395.847382 612.972351,395.858459 
	C646.469360,395.909058 679.966309,395.947662 713.463318,395.957916 
	C722.374451,395.960632 723.158386,396.501038 723.170166,405.510162 
	C723.272644,483.673553 723.306091,561.837036 723.360168,640.000488 
	C723.369263,653.166992 723.378601,666.333557 723.388733,680.000122 
z"/>
<path fill="#000000" opacity="1.000000" stroke="none" 
	d="
M440.396667,558.578735 
	C447.857758,565.008484 455.141602,571.103027 462.195526,577.453003 
	C464.533203,579.557373 466.127319,578.906372 468.255981,577.375671 
	C495.031433,558.122070 522.108032,539.284058 548.301331,519.228088 
	C549.882446,518.017456 551.603760,516.985168 553.288635,515.915222 
	C560.734619,511.187286 566.245850,515.229492 567.567383,522.747375 
	C569.371765,533.012207 571.278259,543.366455 571.274048,553.920898 
	C571.238831,642.718079 571.277710,731.515198 571.281799,820.312378 
	C571.282166,827.255798 571.238586,827.269775 564.365173,827.271606 
	C529.046143,827.280945 493.727081,827.287170 458.408051,827.283447 
	C450.764679,827.282654 450.741302,827.261841 450.742981,819.439026 
	C450.754456,765.294373 450.745087,711.149597 450.863007,657.005127 
	C450.871185,653.244812 450.013824,650.364868 447.227325,647.709167 
	C426.487213,627.942810 405.902344,608.013550 385.154541,588.255371 
	C378.878296,582.278503 378.573364,582.431152 371.924896,587.909485 
	C349.435394,606.440979 326.957611,624.986755 304.472443,643.523560 
	C303.460327,644.357971 302.603790,645.463562 301.054077,645.550781 
	C299.098053,644.593140 299.766541,642.715881 299.760834,641.189514 
	C299.724579,631.527222 299.857880,621.863831 299.760864,612.202576 
	C299.731415,609.270142 300.831726,607.126099 302.870239,605.183350 
	C332.050354,577.374939 360.666321,548.990967 389.039062,520.363586 
	C391.975464,517.400818 393.706207,518.666748 396.069061,520.695862 
	C410.724701,533.281372 425.436523,545.801453 440.396667,558.578735 
z"/>
<path fill="#000000" opacity="1.000000" stroke="none" 
	d="
M605.732666,292.725128 
	C657.499573,244.045929 709.008362,195.610229 761.092896,146.633102 
	C760.704590,153.046967 474.074005,529.896545 462.770905,539.833252 
	C460.819672,539.860657 460.062042,538.164734 458.968597,537.010254 
	C432.161194,508.707489 405.356934,480.401703 378.585480,452.064941 
	C368.635101,441.532776 358.740143,430.947845 348.875732,420.335114 
	C343.725098,414.793793 343.654083,414.312042 348.606049,408.862305 
	C359.584412,396.780548 370.832275,384.940765 381.667450,372.733551 
	C385.106689,368.858826 387.485992,369.222076 391.071167,372.372070 
	C411.216736,390.072266 431.516296,407.597229 451.763611,425.181610 
	C457.200439,429.903381 457.977997,429.908203 463.423645,424.953094 
	C506.919037,385.375427 549.816284,345.153900 592.667175,304.882385 
	C596.915894,300.889404 601.204468,296.938843 605.732666,292.725128 
z"/>
<path fill="#000000" opacity="1.000000" stroke="none" 
	d="
M314.283691,794.640015 
	C304.628296,780.617126 300.136292,765.268799 299.996857,748.758667 
	C299.778839,722.948914 300.018982,697.135437 299.968719,671.323730 
	C299.961761,667.755066 300.816010,664.997009 303.805725,662.687317 
	C318.690674,651.187927 333.482483,639.567200 348.234100,627.896851 
	C350.717468,625.932190 353.301331,624.942261 356.457581,624.941406 
	C374.609100,624.936584 392.761261,624.915039 410.911621,624.738281 
	C414.756744,624.700806 416.232117,626.056458 416.228546,629.965637 
	C416.169861,693.913086 416.207977,757.860657 416.194122,821.808167 
	C416.193573,824.243347 416.567963,827.297729 412.785675,827.230713 
	C397.155151,826.953979 381.453430,828.576721 365.903931,826.356689 
	C344.358582,823.280579 327.469879,812.217529 314.283691,794.640015 
z"/>
</svg>