<svg version="1.1" id="Layer_1" xmlns="http://www.w3.org/2000/svg" xmlns:xlink="http://www.w3.org/1999/xlink" x="0px" y="0px"
	 width="100%" viewBox="0 0 500 500" enable-background="new 0 0 500 500" xml:space="preserve">
<path fill="#642D9C" opacity="1.000000" stroke="none" 
	d="
M230.000000,1.000001 
	C242.687561,1.000000 255.375122,1.000000 268.737610,1.361875 
	C274.210236,2.234990 279.034271,2.570395 283.801605,3.284135 
	C344.645538,12.393308 396.419525,39.291759 436.054413,86.226524 
	C496.940979,158.327011 515.175720,241.090851 483.623962,330.310181 
	C449.033356,428.122681 376.828674,483.190735 274.000763,496.636017 
	C232.091095,502.115967 190.950089,495.493958 152.488770,478.170166 
	C69.095680,440.608093 19.326828,376.284515 3.744240,285.889709 
	C2.831144,280.592865 1.914820,275.296570 0.999999,270.000000 
	C1.000000,255.645767 1.000000,241.291550 1.366964,226.299545 
	C4.018225,213.067657 5.510377,200.268250 8.712397,187.911957 
	C33.864967,90.850502 113.609665,18.955757 212.528915,3.711447 
	C218.353561,2.813818 224.176346,1.904095 230.000000,1.000001 
M146.651550,183.831085 
	C131.867569,150.348679 131.415985,116.862640 148.162872,84.082657 
	C164.881866,51.357307 192.166260,31.727228 227.841125,23.190599 
	C222.390442,23.447754 217.132584,24.095079 211.922577,25.013798 
	C150.288177,35.882263 100.613892,66.337143 64.142799,117.178406 
	C27.172518,168.715530 14.337426,226.423767 25.261415,288.746033 
	C36.666012,353.810181 70.895409,404.524078 126.067528,440.760162 
	C159.934250,463.003235 197.503357,474.138489 237.928207,476.683624 
	C271.383820,478.790009 301.063995,469.916168 325.813446,447.379211 
	C346.320648,428.705170 359.382996,405.344818 362.117828,377.348999 
	C366.495056,332.541504 350.421906,296.409698 313.981628,269.849426 
	C293.635529,255.019791 270.241272,250.124542 245.326797,249.011627 
	C200.127823,246.992645 167.572113,224.593414 146.651550,183.831085 
M225.080826,103.541054 
	C223.218307,105.438774 220.919434,107.068085 219.561218,109.276031 
	C206.934723,129.801926 215.237717,155.147385 235.658432,163.250259 
	C249.502243,168.743469 265.605560,165.486252 275.605896,154.744644 
	C285.848053,143.743347 288.352448,127.784286 281.771118,114.384026 
	C270.346558,91.122467 240.905899,88.740005 225.080826,103.541054 
z"/>
<path fill="#FFFEFF" opacity="1.000000" stroke="none" 
	d="
M0.999999,270.468658 
	C1.914820,275.296570 2.831144,280.592865 3.744240,285.889709 
	C19.326828,376.284515 69.095680,440.608093 152.488770,478.170166 
	C190.950089,495.493958 232.091095,502.115967 274.000763,496.636017 
	C376.828674,483.190735 449.033356,428.122681 483.623962,330.310181 
	C515.175720,241.090851 496.940979,158.327011 436.054413,86.226524 
	C396.419525,39.291759 344.645538,12.393308 283.801605,3.284135 
	C279.034271,2.570395 274.210236,2.234990 269.206299,1.361875 
	C346.310211,1.000000 423.620392,1.000000 500.965302,1.000000 
	C500.965302,167.593658 500.965302,334.187347 500.965302,500.890503 
	C334.456238,500.890503 167.912399,500.890503 1.000000,500.890503 
	C1.000000,424.312836 1.000000,347.625061 0.999999,270.468658 
z"/>
<path fill="#FFFEFF" opacity="1.000000" stroke="none" 
	d="
M229.531342,1.000001 
	C224.176346,1.904095 218.353561,2.813818 212.528915,3.711447 
	C113.609665,18.955757 33.864967,90.850502 8.712397,187.911957 
	C5.510377,200.268250 4.018225,213.067657 1.366964,225.830887 
	C1.000000,151.072311 1.000000,76.144623 1.000000,1.000000 
	C77.020760,1.000000 153.041718,1.000000 229.531342,1.000001 
z"/>
<path fill="#FD5B00" opacity="1.000000" stroke="none" 
	d="
M146.803131,184.177948 
	C167.572113,224.593414 200.127823,246.992645 245.326797,249.011627 
	C270.241272,250.124542 293.635529,255.019791 313.981628,269.849426 
	C350.421906,296.409698 366.495056,332.541504 362.117828,377.348999 
	C359.382996,405.344818 346.320648,428.705170 325.813446,447.379211 
	C301.063995,469.916168 271.383820,478.790009 237.928207,476.683624 
	C197.503357,474.138489 159.934250,463.003235 126.067528,440.760162 
	C70.895409,404.524078 36.666012,353.810181 25.261415,288.746033 
	C14.337426,226.423767 27.172518,168.715530 64.142799,117.178406 
	C100.613892,66.337143 150.288177,35.882263 211.922577,25.013798 
	C217.132584,24.095079 222.390442,23.447754 227.841125,23.190599 
	C192.166260,31.727228 164.881866,51.357307 148.162872,84.082657 
	C131.415985,116.862640 131.867569,150.348679 146.803131,184.177948 
M266.905762,400.541718 
	C280.512115,392.090271 286.831970,380.040039 285.052063,363.945038 
	C283.390228,348.917450 271.301392,336.336761 255.607635,333.374176 
	C241.127747,330.640747 224.417542,338.270050 218.143631,350.478912 
	C210.379715,365.587280 212.461182,382.470276 223.511658,394.019531 
	C234.434616,405.435516 250.622726,408.044067 266.905762,400.541718 
z"/>
<path fill="#FC5B01" opacity="1.000000" stroke="none" 
	d="
M225.347046,103.300713 
	C240.905899,88.740005 270.346558,91.122467 281.771118,114.384026 
	C288.352448,127.784286 285.848053,143.743347 275.605896,154.744644 
	C265.605560,165.486252 249.502243,168.743469 235.658432,163.250259 
	C215.237717,155.147385 206.934723,129.801926 219.561218,109.276031 
	C220.919434,107.068085 223.218307,105.438774 225.347046,103.300713 
z"/>
<path fill="#642E9C" opacity="1.000000" stroke="none" 
	d="
M266.580200,400.724426 
	C250.622726,408.044067 234.434616,405.435516 223.511658,394.019531 
	C212.461182,382.470276 210.379715,365.587280 218.143631,350.478912 
	C224.417542,338.270050 241.127747,330.640747 255.607635,333.374176 
	C271.301392,336.336761 283.390228,348.917450 285.052063,363.945038 
	C286.831970,380.040039 280.512115,392.090271 266.580200,400.724426 
z"/>
</svg>